<?xml version="1.0" ?>
<mxfile host="65bd71144e">
	<diagram id="RFndyrCF2-3MIdXtw8gX" name="Page-1">
		<mxGraphModel dx="422" dy="816" grid="1" gridSize="10" guides="1" tooltips="1" connect="1" arrows="1" fold="1" page="1" pageScale="1" pageWidth="850" pageHeight="1100" math="0" shadow="0">
			<root>
				<mxCell id="0"/>
				<mxCell id="1" parent="0"/>
				<mxCell id="5750010016" value="&lt;b&gt;Module&lt;/b&gt;" style="rounded=1;whiteSpace=wrap;html=1;fillColor=#CC99FF;strokeColor=#000000;" parent="1" vertex="1">
					<mxGeometry x="1235.02" y="0.0" width="120" height="120" as="geometry"/>
				</mxCell>
				<mxCell id="5749997728" value="&lt;b&gt;FunctionDef&lt;/b&gt;&lt;br&gt;name: main&lt;br&gt;lineno: 2&lt;br&gt;col_offset: 0&lt;br&gt;end_lineno: 8&lt;br&gt;end_col_offset: 14" style="rounded=1;whiteSpace=wrap;html=1;fillColor=#66B2FF;strokeColor=#000000;" parent="1" vertex="1">
					<mxGeometry x="1235.02" y="144.0" width="120" height="120" as="geometry"/>
				</mxCell>
				<mxCell id="5749999600" value="&lt;b&gt;arguments&lt;/b&gt;" style="rounded=1;whiteSpace=wrap;html=1;fillColor=#E6E6E6;strokeColor=#000000;" parent="1" vertex="1">
					<mxGeometry x="1583.02" y="288.0" width="120" height="120" as="geometry"/>
				</mxCell>
				<mxCell id="5750010976" value="&lt;b&gt;FunctionDef&lt;/b&gt;&lt;br&gt;name: plus&lt;br&gt;lineno: 3&lt;br&gt;col_offset: 4&lt;br&gt;end_lineno: 4&lt;br&gt;end_col_offset: 20" style="rounded=1;whiteSpace=wrap;html=1;fillColor=#66B2FF;strokeColor=#000000;" parent="1" vertex="1">
					<mxGeometry x="1451.02" y="288.0" width="120" height="120" as="geometry"/>
				</mxCell>
				<mxCell id="5750012464" value="&lt;b&gt;arguments&lt;/b&gt;" style="rounded=1;whiteSpace=wrap;html=1;fillColor=#E6E6E6;strokeColor=#000000;" parent="1" vertex="1">
					<mxGeometry x="1604.02" y="432.0" width="120" height="120" as="geometry"/>
				</mxCell>
				<mxCell id="5750011360" value="&lt;b&gt;arg&lt;/b&gt;&lt;br&gt;arg: a&lt;br&gt;lineno: 3&lt;br&gt;col_offset: 13&lt;br&gt;end_lineno: 3&lt;br&gt;end_col_offset: 14" style="rounded=1;whiteSpace=wrap;html=1;fillColor=#E6E6E6;strokeColor=#000000;" parent="1" vertex="1">
					<mxGeometry x="1736.019" y="576.0" width="120" height="120" as="geometry"/>
				</mxCell>
				<mxCell id="5750011552" value="&lt;b&gt;arg&lt;/b&gt;&lt;br&gt;arg: b&lt;br&gt;lineno: 3&lt;br&gt;col_offset: 16&lt;br&gt;end_lineno: 3&lt;br&gt;end_col_offset: 17" style="rounded=1;whiteSpace=wrap;html=1;fillColor=#E6E6E6;strokeColor=#000000;" parent="1" vertex="1">
					<mxGeometry x="1604.02" y="576.0" width="120" height="120" as="geometry"/>
				</mxCell>
				<mxCell id="5750010064" value="&lt;b&gt;Return&lt;/b&gt;&lt;br&gt;lineno: 4&lt;br&gt;col_offset: 8&lt;br&gt;end_lineno: 4&lt;br&gt;end_col_offset: 20" style="rounded=1;whiteSpace=wrap;html=1;fillColor=#D6FFC9;strokeColor=#000000;" parent="1" vertex="1">
					<mxGeometry x="1463.02" y="432.0" width="120" height="120" as="geometry"/>
				</mxCell>
				<mxCell id="5749998304" value="&lt;b&gt;BinOp&lt;/b&gt;&lt;br&gt;lineno: 4&lt;br&gt;col_offset: 15&lt;br&gt;end_lineno: 4&lt;br&gt;end_col_offset: 20&lt;br&gt;_pp: 11" style="rounded=1;whiteSpace=wrap;html=1;fillColor=#CCCCFF;strokeColor=#000000;" parent="1" vertex="1">
					<mxGeometry x="1472.02" y="576.0" width="120" height="120" as="geometry"/>
				</mxCell>
				<mxCell id="5750008000" value="&lt;b&gt;Name&lt;/b&gt;&lt;br&gt;id: a&lt;br&gt;lineno: 4&lt;br&gt;col_offset: 15&lt;br&gt;end_lineno: 4&lt;br&gt;end_col_offset: 16&lt;br&gt;_pp: 47" style="rounded=1;whiteSpace=wrap;html=1;fillColor=#CCE5FF;strokeColor=#000000;" parent="1" vertex="1">
					<mxGeometry x="1736.019" y="720.0" width="120" height="120" as="geometry"/>
				</mxCell>
				<mxCell id="5750009248" value="&lt;b&gt;Load&lt;/b&gt;" style="rounded=1;whiteSpace=wrap;html=1;fillColor=#E6E6E6;strokeColor=#000000;" parent="1" vertex="1">
					<mxGeometry x="1344.02" y="864.0" width="120" height="120" as="geometry"/>
				</mxCell>
				<mxCell id="5749433600" value="&lt;b&gt;Add&lt;/b&gt;" style="rounded=1;whiteSpace=wrap;html=1;fillColor=#E6E6E6;strokeColor=#000000;" parent="1" vertex="1">
					<mxGeometry x="1604.02" y="720.0" width="120" height="120" as="geometry"/>
				</mxCell>
				<mxCell id="5750009920" value="&lt;b&gt;Name&lt;/b&gt;&lt;br&gt;id: b&lt;br&gt;lineno: 4&lt;br&gt;col_offset: 19&lt;br&gt;end_lineno: 4&lt;br&gt;end_col_offset: 20&lt;br&gt;_pp: 48" style="rounded=1;whiteSpace=wrap;html=1;fillColor=#CCE5FF;strokeColor=#000000;" parent="1" vertex="1">
					<mxGeometry x="1472.02" y="720.0" width="120" height="120" as="geometry"/>
				</mxCell>
				<mxCell id="5749999936" value="&lt;b&gt;Assign&lt;/b&gt;&lt;br&gt;lineno: 6&lt;br&gt;col_offset: 4&lt;br&gt;end_lineno: 6&lt;br&gt;end_col_offset: 15" style="rounded=1;whiteSpace=wrap;html=1;fillColor=#D6FFC9;strokeColor=#000000;" parent="1" vertex="1">
					<mxGeometry x="868.02" y="288.0" width="120" height="120" as="geometry"/>
				</mxCell>
				<mxCell id="5750010160" value="&lt;b&gt;Tuple&lt;/b&gt;&lt;br&gt;lineno: 6&lt;br&gt;col_offset: 4&lt;br&gt;end_lineno: 6&lt;br&gt;end_col_offset: 8&lt;br&gt;_pp: 3" style="rounded=1;whiteSpace=wrap;html=1;fillColor=#FFD9B3;strokeColor=#000000;" parent="1" vertex="1">
					<mxGeometry x="543.0" y="432.0" width="120" height="120" as="geometry"/>
				</mxCell>
				<mxCell id="5749998352" value="&lt;b&gt;Name&lt;/b&gt;&lt;br&gt;id: x&lt;br&gt;lineno: 6&lt;br&gt;col_offset: 4&lt;br&gt;end_lineno: 6&lt;br&gt;end_col_offset: 5&lt;br&gt;_pp: 21" style="rounded=1;whiteSpace=wrap;html=1;fillColor=#CCE5FF;strokeColor=#000000;" parent="1" vertex="1">
					<mxGeometry x="604.0" y="576.0" width="120" height="120" as="geometry"/>
				</mxCell>
				<mxCell id="5749999744" value="&lt;b&gt;Store&lt;/b&gt;" style="rounded=1;whiteSpace=wrap;html=1;fillColor=#E6E6E6;strokeColor=#000000;" parent="1" vertex="1">
					<mxGeometry x="422.0" y="720.0" width="120" height="120" as="geometry"/>
				</mxCell>
				<mxCell id="5750012560" value="&lt;b&gt;Name&lt;/b&gt;&lt;br&gt;id: y&lt;br&gt;lineno: 6&lt;br&gt;col_offset: 7&lt;br&gt;end_lineno: 6&lt;br&gt;end_col_offset: 8&lt;br&gt;_pp: 21" style="rounded=1;whiteSpace=wrap;html=1;fillColor=#CCE5FF;strokeColor=#000000;" parent="1" vertex="1">
					<mxGeometry x="472.0" y="576.0" width="120" height="120" as="geometry"/>
				</mxCell>
				<mxCell id="5750009152" value="&lt;b&gt;Tuple&lt;/b&gt;&lt;br&gt;lineno: 6&lt;br&gt;col_offset: 11&lt;br&gt;end_lineno: 6&lt;br&gt;end_col_offset: 15&lt;br&gt;_pp: 3" style="rounded=1;whiteSpace=wrap;html=1;fillColor=#FFD9B3;strokeColor=#000000;" parent="1" vertex="1">
					<mxGeometry x="868.02" y="432.0" width="120" height="120" as="geometry"/>
				</mxCell>
				<mxCell id="5750012512" value="&lt;b&gt;Constant&lt;/b&gt;&lt;br&gt;value: 1&lt;br&gt;lineno: 6&lt;br&gt;col_offset: 11&lt;br&gt;end_lineno: 6&lt;br&gt;end_col_offset: 12&lt;br&gt;_pp: 21" style="rounded=1;whiteSpace=wrap;html=1;fillColor=#FFFFFF;strokeColor=#000000;" parent="1" vertex="1">
					<mxGeometry x="868.02" y="576.0" width="120" height="120" as="geometry"/>
				</mxCell>
				<mxCell id="5750012800" value="&lt;b&gt;Constant&lt;/b&gt;&lt;br&gt;value: 2&lt;br&gt;lineno: 6&lt;br&gt;col_offset: 14&lt;br&gt;end_lineno: 6&lt;br&gt;end_col_offset: 15&lt;br&gt;_pp: 21" style="rounded=1;whiteSpace=wrap;html=1;fillColor=#FFFFFF;strokeColor=#000000;" parent="1" vertex="1">
					<mxGeometry x="736.0" y="576.0" width="120" height="120" as="geometry"/>
				</mxCell>
				<mxCell id="5744340576" value="&lt;b&gt;Assign&lt;/b&gt;" style="rounded=1;whiteSpace=wrap;html=1;fillColor=#D6FFC9;strokeColor=#000000;" parent="1" vertex="1">
					<mxGeometry x="1175.02" y="432.0" width="120" height="120" as="geometry"/>
				</mxCell>
				<mxCell id="5744340096" value="&lt;b&gt;Tuple&lt;/b&gt;&lt;br&gt;_pp: 3" style="rounded=1;whiteSpace=wrap;html=1;fillColor=#FFD9B3;strokeColor=#000000;" parent="1" vertex="1">
					<mxGeometry x="1000.02" y="576.0" width="120" height="120" as="geometry"/>
				</mxCell>
				<mxCell id="5744340336" value="&lt;b&gt;Name&lt;/b&gt;&lt;br&gt;id: a_new&lt;br&gt;_pp: 21" style="rounded=1;whiteSpace=wrap;html=1;fillColor=#CCE5FF;strokeColor=#000000;" parent="1" vertex="1">
					<mxGeometry x="868.02" y="720.0" width="120" height="120" as="geometry"/>
				</mxCell>
				<mxCell id="5744339808" value="&lt;b&gt;Store&lt;/b&gt;" style="rounded=1;whiteSpace=wrap;html=1;fillColor=#E6E6E6;strokeColor=#000000;" parent="1" vertex="1">
					<mxGeometry x="868.02" y="864.0" width="120" height="120" as="geometry"/>
				</mxCell>
				<mxCell id="5744340432" value="&lt;b&gt;Name&lt;/b&gt;&lt;br&gt;id: b_new&lt;br&gt;_pp: 21" style="rounded=1;whiteSpace=wrap;html=1;fillColor=#CCE5FF;strokeColor=#000000;" parent="1" vertex="1">
					<mxGeometry x="1000.02" y="720.0" width="120" height="120" as="geometry"/>
				</mxCell>
				<mxCell id="5744340192" value="&lt;b&gt;Store&lt;/b&gt;" style="rounded=1;whiteSpace=wrap;html=1;fillColor=#E6E6E6;strokeColor=#000000;" parent="1" vertex="1">
					<mxGeometry x="1000.02" y="864.0" width="120" height="120" as="geometry"/>
				</mxCell>
				<mxCell id="5744340480" value="&lt;b&gt;Tuple&lt;/b&gt;&lt;br&gt;_pp: 3" style="rounded=1;whiteSpace=wrap;html=1;fillColor=#FFD9B3;strokeColor=#000000;" parent="1" vertex="1">
					<mxGeometry x="1175.02" y="576.0" width="120" height="120" as="geometry"/>
				</mxCell>
				<mxCell id="5749999072" value="&lt;b&gt;Name&lt;/b&gt;&lt;br&gt;id: x&lt;br&gt;lineno: 7&lt;br&gt;col_offset: 15&lt;br&gt;end_lineno: 7&lt;br&gt;end_col_offset: 16&lt;br&gt;_pp: 21" style="rounded=1;whiteSpace=wrap;html=1;fillColor=#CCE5FF;strokeColor=#000000;" parent="1" vertex="1">
					<mxGeometry x="1170.02" y="720.0" width="120" height="120" as="geometry"/>
				</mxCell>
				<mxCell id="5750009008" value="&lt;b&gt;Name&lt;/b&gt;&lt;br&gt;id: y&lt;br&gt;lineno: 7&lt;br&gt;col_offset: 18&lt;br&gt;end_lineno: 7&lt;br&gt;end_col_offset: 19&lt;br&gt;_pp: 21" style="rounded=1;whiteSpace=wrap;html=1;fillColor=#CCE5FF;strokeColor=#000000;" parent="1" vertex="1">
					<mxGeometry x="1302.02" y="720.0" width="120" height="120" as="geometry"/>
				</mxCell>
				<mxCell id="5750011120" value="&lt;b&gt;Assign&lt;/b&gt;&lt;br&gt;lineno: 7&lt;br&gt;col_offset: 4&lt;br&gt;end_lineno: 7&lt;br&gt;end_col_offset: 20" style="rounded=1;whiteSpace=wrap;html=1;fillColor=#D6FFC9;strokeColor=#000000;" parent="1" vertex="1">
					<mxGeometry x="349.0" y="288.0" width="120" height="120" as="geometry"/>
				</mxCell>
				<mxCell id="5750007568" value="&lt;b&gt;Name&lt;/b&gt;&lt;br&gt;id: res&lt;br&gt;lineno: 7&lt;br&gt;col_offset: 4&lt;br&gt;end_lineno: 7&lt;br&gt;end_col_offset: 7&lt;br&gt;_pp: 3" style="rounded=1;whiteSpace=wrap;html=1;fillColor=#CCE5FF;strokeColor=#000000;" parent="1" vertex="1">
					<mxGeometry x="349.0" y="432.0" width="120" height="120" as="geometry"/>
				</mxCell>
				<mxCell id="5744339904" value="&lt;b&gt;BinOp&lt;/b&gt;&lt;br&gt;lineno: 4&lt;br&gt;col_offset: 15&lt;br&gt;end_lineno: 4&lt;br&gt;end_col_offset: 20&lt;br&gt;_pp: 3" style="rounded=1;whiteSpace=wrap;html=1;fillColor=#CCCCFF;strokeColor=#000000;" parent="1" vertex="1">
					<mxGeometry x="175.0" y="432.0" width="120" height="120" as="geometry"/>
				</mxCell>
				<mxCell id="5744340528" value="&lt;b&gt;Name&lt;/b&gt;&lt;br&gt;id: a_new&lt;br&gt;lineno: 4&lt;br&gt;col_offset: 15&lt;br&gt;end_lineno: 4&lt;br&gt;end_col_offset: 16&lt;br&gt;_pp: 47" style="rounded=1;whiteSpace=wrap;html=1;fillColor=#CCE5FF;strokeColor=#000000;" parent="1" vertex="1">
					<mxGeometry x="264.0" y="576.0" width="120" height="120" as="geometry"/>
				</mxCell>
				<mxCell id="5744340672" value="&lt;b&gt;Load&lt;/b&gt;" style="rounded=1;whiteSpace=wrap;html=1;fillColor=#E6E6E6;strokeColor=#000000;" parent="1" vertex="1">
					<mxGeometry x="229.0" y="720.0" width="120" height="120" as="geometry"/>
				</mxCell>
				<mxCell id="5745486544" value="&lt;b&gt;Add&lt;/b&gt;" style="rounded=1;whiteSpace=wrap;html=1;fillColor=#E6E6E6;strokeColor=#000000;" parent="1" vertex="1">
					<mxGeometry x="0.0" y="576.0" width="120" height="120" as="geometry"/>
				</mxCell>
				<mxCell id="5744340624" value="&lt;b&gt;Name&lt;/b&gt;&lt;br&gt;id: b_new&lt;br&gt;lineno: 4&lt;br&gt;col_offset: 19&lt;br&gt;end_lineno: 4&lt;br&gt;end_col_offset: 20&lt;br&gt;_pp: 48" style="rounded=1;whiteSpace=wrap;html=1;fillColor=#CCE5FF;strokeColor=#000000;" parent="1" vertex="1">
					<mxGeometry x="132.0" y="576.0" width="120" height="120" as="geometry"/>
				</mxCell>
				<mxCell id="5750007424" value="&lt;b&gt;Return&lt;/b&gt;&lt;br&gt;lineno: 8&lt;br&gt;col_offset: 4&lt;br&gt;end_lineno: 8&lt;br&gt;end_col_offset: 14" style="rounded=1;whiteSpace=wrap;html=1;fillColor=#D6FFC9;strokeColor=#000000;" parent="1" vertex="1">
					<mxGeometry x="1310.02" y="288.0" width="120" height="120" as="geometry"/>
				</mxCell>
				<mxCell id="5749998112" value="&lt;b&gt;Name&lt;/b&gt;&lt;br&gt;id: res&lt;br&gt;lineno: 8&lt;br&gt;col_offset: 11&lt;br&gt;end_lineno: 8&lt;br&gt;end_col_offset: 14&lt;br&gt;_pp: 11" style="rounded=1;whiteSpace=wrap;html=1;fillColor=#CCE5FF;strokeColor=#000000;" parent="1" vertex="1">
					<mxGeometry x="1326.02" y="432.0" width="120" height="120" as="geometry"/>
				</mxCell>
				<mxCell id="5750010016_5749997728" value="['body', 0]" style="endArrow=classic;html=1;" parent="1" source="5750010016" target="5749997728" edge="1">
					<mxGeometry width="50" height="50" relative="1" as="geometry">
						<mxPoint x="400" y="440" as="sourcePoint"/>
						<mxPoint x="450" y="390" as="targetPoint"/>
					</mxGeometry>
				</mxCell>
				<mxCell id="5749997728_5749999600" value="['args']" style="endArrow=classic;html=1;" parent="1" source="5749997728" target="5749999600" edge="1">
					<mxGeometry width="50" height="50" relative="1" as="geometry">
						<mxPoint x="400" y="440" as="sourcePoint"/>
						<mxPoint x="450" y="390" as="targetPoint"/>
					</mxGeometry>
				</mxCell>
				<mxCell id="5749997728_5750010976" value="['body', 0]" style="endArrow=classic;html=1;" parent="1" source="5749997728" target="5750010976" edge="1">
					<mxGeometry width="50" height="50" relative="1" as="geometry">
						<mxPoint x="400" y="440" as="sourcePoint"/>
						<mxPoint x="450" y="390" as="targetPoint"/>
					</mxGeometry>
				</mxCell>
				<mxCell id="5750010976_5750012464" value="['args']" style="endArrow=classic;html=1;" parent="1" source="5750010976" target="5750012464" edge="1">
					<mxGeometry width="50" height="50" relative="1" as="geometry">
						<mxPoint x="400" y="440" as="sourcePoint"/>
						<mxPoint x="450" y="390" as="targetPoint"/>
					</mxGeometry>
				</mxCell>
				<mxCell id="5750012464_5750011360" value="['args', 0]" style="endArrow=classic;html=1;" parent="1" source="5750012464" target="5750011360" edge="1">
					<mxGeometry width="50" height="50" relative="1" as="geometry">
						<mxPoint x="400" y="440" as="sourcePoint"/>
						<mxPoint x="450" y="390" as="targetPoint"/>
					</mxGeometry>
				</mxCell>
				<mxCell id="5750012464_5750011552" value="['args', 1]" style="endArrow=classic;html=1;" parent="1" source="5750012464" target="5750011552" edge="1">
					<mxGeometry width="50" height="50" relative="1" as="geometry">
						<mxPoint x="400" y="440" as="sourcePoint"/>
						<mxPoint x="450" y="390" as="targetPoint"/>
					</mxGeometry>
				</mxCell>
				<mxCell id="5750010976_5750010064" value="['body', 0]" style="endArrow=classic;html=1;" parent="1" source="5750010976" target="5750010064" edge="1">
					<mxGeometry width="50" height="50" relative="1" as="geometry">
						<mxPoint x="400" y="440" as="sourcePoint"/>
						<mxPoint x="450" y="390" as="targetPoint"/>
					</mxGeometry>
				</mxCell>
				<mxCell id="5750010064_5749998304" value="['value']" style="endArrow=classic;html=1;" parent="1" source="5750010064" target="5749998304" edge="1">
					<mxGeometry width="50" height="50" relative="1" as="geometry">
						<mxPoint x="400" y="440" as="sourcePoint"/>
						<mxPoint x="450" y="390" as="targetPoint"/>
					</mxGeometry>
				</mxCell>
				<mxCell id="5749998304_5750008000" value="['left']" style="endArrow=classic;html=1;" parent="1" source="5749998304" target="5750008000" edge="1">
					<mxGeometry width="50" height="50" relative="1" as="geometry">
						<mxPoint x="400" y="440" as="sourcePoint"/>
						<mxPoint x="450" y="390" as="targetPoint"/>
					</mxGeometry>
				</mxCell>
				<mxCell id="5750008000_5750009248" value="['ctx']" style="endArrow=classic;html=1;" parent="1" source="5750008000" target="5750009248" edge="1">
					<mxGeometry width="50" height="50" relative="1" as="geometry">
						<mxPoint x="400" y="440" as="sourcePoint"/>
						<mxPoint x="450" y="390" as="targetPoint"/>
					</mxGeometry>
				</mxCell>
				<mxCell id="5749998304_5749433600" value="['op']" style="endArrow=classic;html=1;" parent="1" source="5749998304" target="5749433600" edge="1">
					<mxGeometry width="50" height="50" relative="1" as="geometry">
						<mxPoint x="400" y="440" as="sourcePoint"/>
						<mxPoint x="450" y="390" as="targetPoint"/>
					</mxGeometry>
				</mxCell>
				<mxCell id="5749998304_5750009920" value="['right']" style="endArrow=classic;html=1;" parent="1" source="5749998304" target="5750009920" edge="1">
					<mxGeometry width="50" height="50" relative="1" as="geometry">
						<mxPoint x="400" y="440" as="sourcePoint"/>
						<mxPoint x="450" y="390" as="targetPoint"/>
					</mxGeometry>
				</mxCell>
				<mxCell id="5750009920_5750009248" value="['ctx']" style="endArrow=classic;html=1;" parent="1" source="5750009920" target="5750009248" edge="1">
					<mxGeometry width="50" height="50" relative="1" as="geometry">
						<mxPoint x="400" y="440" as="sourcePoint"/>
						<mxPoint x="450" y="390" as="targetPoint"/>
					</mxGeometry>
				</mxCell>
				<mxCell id="5749997728_5749999936" value="['body', 1]" style="endArrow=classic;html=1;" parent="1" source="5749997728" target="5749999936" edge="1">
					<mxGeometry width="50" height="50" relative="1" as="geometry">
						<mxPoint x="400" y="440" as="sourcePoint"/>
						<mxPoint x="450" y="390" as="targetPoint"/>
					</mxGeometry>
				</mxCell>
				<mxCell id="5749999936_5750010160" value="['targets', 0]" style="endArrow=classic;html=1;" parent="1" source="5749999936" target="5750010160" edge="1">
					<mxGeometry width="50" height="50" relative="1" as="geometry">
						<mxPoint x="400" y="440" as="sourcePoint"/>
						<mxPoint x="450" y="390" as="targetPoint"/>
					</mxGeometry>
				</mxCell>
				<mxCell id="5750010160_5749998352" value="['elts', 0]" style="endArrow=classic;html=1;" parent="1" source="5750010160" target="5749998352" edge="1">
					<mxGeometry width="50" height="50" relative="1" as="geometry">
						<mxPoint x="400" y="440" as="sourcePoint"/>
						<mxPoint x="450" y="390" as="targetPoint"/>
					</mxGeometry>
				</mxCell>
				<mxCell id="5749998352_5749999744" value="['ctx']" style="endArrow=classic;html=1;" parent="1" source="5749998352" target="5749999744" edge="1">
					<mxGeometry width="50" height="50" relative="1" as="geometry">
						<mxPoint x="400" y="440" as="sourcePoint"/>
						<mxPoint x="450" y="390" as="targetPoint"/>
					</mxGeometry>
				</mxCell>
				<mxCell id="5750010160_5750012560" value="['elts', 1]" style="endArrow=classic;html=1;" parent="1" source="5750010160" target="5750012560" edge="1">
					<mxGeometry width="50" height="50" relative="1" as="geometry">
						<mxPoint x="400" y="440" as="sourcePoint"/>
						<mxPoint x="450" y="390" as="targetPoint"/>
					</mxGeometry>
				</mxCell>
				<mxCell id="5750012560_5749999744" value="['ctx']" style="endArrow=classic;html=1;" parent="1" source="5750012560" target="5749999744" edge="1">
					<mxGeometry width="50" height="50" relative="1" as="geometry">
						<mxPoint x="400" y="440" as="sourcePoint"/>
						<mxPoint x="450" y="390" as="targetPoint"/>
					</mxGeometry>
				</mxCell>
				<mxCell id="5750010160_5749999744" value="['ctx']" style="endArrow=classic;html=1;" parent="1" source="5750010160" target="5749999744" edge="1">
					<mxGeometry width="50" height="50" relative="1" as="geometry">
						<mxPoint x="400" y="440" as="sourcePoint"/>
						<mxPoint x="450" y="390" as="targetPoint"/>
					</mxGeometry>
				</mxCell>
				<mxCell id="5749999936_5750009152" value="['value']" style="endArrow=classic;html=1;" parent="1" source="5749999936" target="5750009152" edge="1">
					<mxGeometry width="50" height="50" relative="1" as="geometry">
						<mxPoint x="400" y="440" as="sourcePoint"/>
						<mxPoint x="450" y="390" as="targetPoint"/>
					</mxGeometry>
				</mxCell>
				<mxCell id="5750009152_5750012512" value="['elts', 0]" style="endArrow=classic;html=1;" parent="1" source="5750009152" target="5750012512" edge="1">
					<mxGeometry width="50" height="50" relative="1" as="geometry">
						<mxPoint x="400" y="440" as="sourcePoint"/>
						<mxPoint x="450" y="390" as="targetPoint"/>
					</mxGeometry>
				</mxCell>
				<mxCell id="5750009152_5750012800" value="['elts', 1]" style="endArrow=classic;html=1;" parent="1" source="5750009152" target="5750012800" edge="1">
					<mxGeometry width="50" height="50" relative="1" as="geometry">
						<mxPoint x="400" y="440" as="sourcePoint"/>
						<mxPoint x="450" y="390" as="targetPoint"/>
					</mxGeometry>
				</mxCell>
				<mxCell id="5750009152_5750009248" value="['ctx']" style="endArrow=classic;html=1;" parent="1" source="5750009152" target="5750009248" edge="1">
					<mxGeometry width="50" height="50" relative="1" as="geometry">
						<mxPoint x="400" y="440" as="sourcePoint"/>
						<mxPoint x="450" y="390" as="targetPoint"/>
					</mxGeometry>
				</mxCell>
				<mxCell id="5749997728_5744340576" value="['body', 2]" style="endArrow=classic;html=1;" parent="1" source="5749997728" target="5744340576" edge="1">
					<mxGeometry width="50" height="50" relative="1" as="geometry">
						<mxPoint x="400" y="440" as="sourcePoint"/>
						<mxPoint x="450" y="390" as="targetPoint"/>
					</mxGeometry>
				</mxCell>
				<mxCell id="5744340576_5744340096" value="['targets', 0]" style="endArrow=classic;html=1;" parent="1" source="5744340576" target="5744340096" edge="1">
					<mxGeometry width="50" height="50" relative="1" as="geometry">
						<mxPoint x="400" y="440" as="sourcePoint"/>
						<mxPoint x="450" y="390" as="targetPoint"/>
					</mxGeometry>
				</mxCell>
				<mxCell id="5744340096_5744340336" value="['elts', 0]" style="endArrow=classic;html=1;" parent="1" source="5744340096" target="5744340336" edge="1">
					<mxGeometry width="50" height="50" relative="1" as="geometry">
						<mxPoint x="400" y="440" as="sourcePoint"/>
						<mxPoint x="450" y="390" as="targetPoint"/>
					</mxGeometry>
				</mxCell>
				<mxCell id="5744340336_5744339808" value="['ctx']" style="endArrow=classic;html=1;" parent="1" source="5744340336" target="5744339808" edge="1">
					<mxGeometry width="50" height="50" relative="1" as="geometry">
						<mxPoint x="400" y="440" as="sourcePoint"/>
						<mxPoint x="450" y="390" as="targetPoint"/>
					</mxGeometry>
				</mxCell>
				<mxCell id="5744340096_5744340432" value="['elts', 1]" style="endArrow=classic;html=1;" parent="1" source="5744340096" target="5744340432" edge="1">
					<mxGeometry width="50" height="50" relative="1" as="geometry">
						<mxPoint x="400" y="440" as="sourcePoint"/>
						<mxPoint x="450" y="390" as="targetPoint"/>
					</mxGeometry>
				</mxCell>
				<mxCell id="5744340432_5744340192" value="['ctx']" style="endArrow=classic;html=1;" parent="1" source="5744340432" target="5744340192" edge="1">
					<mxGeometry width="50" height="50" relative="1" as="geometry">
						<mxPoint x="400" y="440" as="sourcePoint"/>
						<mxPoint x="450" y="390" as="targetPoint"/>
					</mxGeometry>
				</mxCell>
				<mxCell id="5744340576_5744340480" value="['value']" style="endArrow=classic;html=1;" parent="1" source="5744340576" target="5744340480" edge="1">
					<mxGeometry width="50" height="50" relative="1" as="geometry">
						<mxPoint x="400" y="440" as="sourcePoint"/>
						<mxPoint x="450" y="390" as="targetPoint"/>
					</mxGeometry>
				</mxCell>
				<mxCell id="5744340480_5749999072" value="['elts', 0]" style="endArrow=classic;html=1;" parent="1" source="5744340480" target="5749999072" edge="1">
					<mxGeometry width="50" height="50" relative="1" as="geometry">
						<mxPoint x="400" y="440" as="sourcePoint"/>
						<mxPoint x="450" y="390" as="targetPoint"/>
					</mxGeometry>
				</mxCell>
				<mxCell id="5749999072_5750009248" value="['ctx']" style="endArrow=classic;html=1;" parent="1" source="5749999072" target="5750009248" edge="1">
					<mxGeometry width="50" height="50" relative="1" as="geometry">
						<mxPoint x="400" y="440" as="sourcePoint"/>
						<mxPoint x="450" y="390" as="targetPoint"/>
					</mxGeometry>
				</mxCell>
				<mxCell id="5744340480_5750009008" value="['elts', 1]" style="endArrow=classic;html=1;" parent="1" source="5744340480" target="5750009008" edge="1">
					<mxGeometry width="50" height="50" relative="1" as="geometry">
						<mxPoint x="400" y="440" as="sourcePoint"/>
						<mxPoint x="450" y="390" as="targetPoint"/>
					</mxGeometry>
				</mxCell>
				<mxCell id="5750009008_5750009248" value="['ctx']" style="endArrow=classic;html=1;" parent="1" source="5750009008" target="5750009248" edge="1">
					<mxGeometry width="50" height="50" relative="1" as="geometry">
						<mxPoint x="400" y="440" as="sourcePoint"/>
						<mxPoint x="450" y="390" as="targetPoint"/>
					</mxGeometry>
				</mxCell>
				<mxCell id="5749997728_5750011120" value="['body', 3]" style="endArrow=classic;html=1;" parent="1" source="5749997728" target="5750011120" edge="1">
					<mxGeometry width="50" height="50" relative="1" as="geometry">
						<mxPoint x="400" y="440" as="sourcePoint"/>
						<mxPoint x="450" y="390" as="targetPoint"/>
					</mxGeometry>
				</mxCell>
				<mxCell id="5750011120_5750007568" value="['targets', 0]" style="endArrow=classic;html=1;" parent="1" source="5750011120" target="5750007568" edge="1">
					<mxGeometry width="50" height="50" relative="1" as="geometry">
						<mxPoint x="400" y="440" as="sourcePoint"/>
						<mxPoint x="450" y="390" as="targetPoint"/>
					</mxGeometry>
				</mxCell>
				<mxCell id="5750007568_5749999744" value="['ctx']" style="endArrow=classic;html=1;" parent="1" source="5750007568" target="5749999744" edge="1">
					<mxGeometry width="50" height="50" relative="1" as="geometry">
						<mxPoint x="400" y="440" as="sourcePoint"/>
						<mxPoint x="450" y="390" as="targetPoint"/>
					</mxGeometry>
				</mxCell>
				<mxCell id="5750011120_5744339904" value="['value']" style="endArrow=classic;html=1;" parent="1" source="5750011120" target="5744339904" edge="1">
					<mxGeometry width="50" height="50" relative="1" as="geometry">
						<mxPoint x="400" y="440" as="sourcePoint"/>
						<mxPoint x="450" y="390" as="targetPoint"/>
					</mxGeometry>
				</mxCell>
				<mxCell id="5744339904_5744340528" value="['left']" style="endArrow=classic;html=1;" parent="1" source="5744339904" target="5744340528" edge="1">
					<mxGeometry width="50" height="50" relative="1" as="geometry">
						<mxPoint x="400" y="440" as="sourcePoint"/>
						<mxPoint x="450" y="390" as="targetPoint"/>
					</mxGeometry>
				</mxCell>
				<mxCell id="5744340528_5744340672" value="['ctx']" style="endArrow=classic;html=1;" parent="1" source="5744340528" target="5744340672" edge="1">
					<mxGeometry width="50" height="50" relative="1" as="geometry">
						<mxPoint x="400" y="440" as="sourcePoint"/>
						<mxPoint x="450" y="390" as="targetPoint"/>
					</mxGeometry>
				</mxCell>
				<mxCell id="5744339904_5745486544" value="['op']" style="endArrow=classic;html=1;" parent="1" source="5744339904" target="5745486544" edge="1">
					<mxGeometry width="50" height="50" relative="1" as="geometry">
						<mxPoint x="400" y="440" as="sourcePoint"/>
						<mxPoint x="450" y="390" as="targetPoint"/>
					</mxGeometry>
				</mxCell>
				<mxCell id="5744339904_5744340624" value="['right']" style="endArrow=classic;html=1;" parent="1" source="5744339904" target="5744340624" edge="1">
					<mxGeometry width="50" height="50" relative="1" as="geometry">
						<mxPoint x="400" y="440" as="sourcePoint"/>
						<mxPoint x="450" y="390" as="targetPoint"/>
					</mxGeometry>
				</mxCell>
				<mxCell id="5744340624_5744340672" value="['ctx']" style="endArrow=classic;html=1;" parent="1" source="5744340624" target="5744340672" edge="1">
					<mxGeometry width="50" height="50" relative="1" as="geometry">
						<mxPoint x="400" y="440" as="sourcePoint"/>
						<mxPoint x="450" y="390" as="targetPoint"/>
					</mxGeometry>
				</mxCell>
				<mxCell id="5749997728_5750007424" value="['body', 4]" style="endArrow=classic;html=1;" parent="1" source="5749997728" target="5750007424" edge="1">
					<mxGeometry width="50" height="50" relative="1" as="geometry">
						<mxPoint x="400" y="440" as="sourcePoint"/>
						<mxPoint x="450" y="390" as="targetPoint"/>
					</mxGeometry>
				</mxCell>
				<mxCell id="5750007424_5749998112" value="['value']" style="endArrow=classic;html=1;" parent="1" source="5750007424" target="5749998112" edge="1">
					<mxGeometry width="50" height="50" relative="1" as="geometry">
						<mxPoint x="400" y="440" as="sourcePoint"/>
						<mxPoint x="450" y="390" as="targetPoint"/>
					</mxGeometry>
				</mxCell>
				<mxCell id="5749998112_5750009248" value="['ctx']" style="endArrow=classic;html=1;" parent="1" source="5749998112" target="5750009248" edge="1">
					<mxGeometry width="50" height="50" relative="1" as="geometry">
						<mxPoint x="400" y="440" as="sourcePoint"/>
						<mxPoint x="450" y="390" as="targetPoint"/>
					</mxGeometry>
				</mxCell>
			</root>
		</mxGraphModel>
	</diagram>
</mxfile>
